HIERARCHY
ROOT Hips
{
 OFFSET 0.000000 0.000000 0.000000
 CHANNELS 6 Xposition Yposition Zposition Yrotation Xrotation Zrotation
 JOINT Chest
 {
  OFFSET 0.000000 9.910571 -0.011835
  CHANNELS 3 Yrotation Xrotation Zrotation
  JOINT Chest2
  {
   OFFSET 0.000000 10.789473 0.021497
   CHANNELS 3 Yrotation Xrotation Zrotation
   JOINT Chest3
   {
    OFFSET 0.000000 9.748205 0.000000
    CHANNELS 3 Yrotation Xrotation Zrotation
    JOINT Chest4
    {
     OFFSET 0.000000 9.748205 0.000000
     CHANNELS 3 Yrotation Xrotation Zrotation
     JOINT Neck
     {
      OFFSET 0.000000 13.998479 0.000000
      CHANNELS 3 Yrotation Xrotation Zrotation
      JOINT Head
      {
       OFFSET 0.000000 9.082285 0.051121
       CHANNELS 3 Yrotation Xrotation Zrotation
       End Site
       {
        OFFSET 0.000000 17.246134 0.026702
       }
      }
     }
     JOINT RightCollar
     {
      OFFSET -3.284495 7.824262 0.000000
      CHANNELS 3 Yrotation Xrotation Zrotation
      JOINT RightShoulder
      {
       OFFSET -15.534540 0.000000 0.000000
       CHANNELS 3 Yrotation Xrotation Zrotation
       JOINT RightElbow
       {
        OFFSET 0.000000 -28.251216 0.000000
        CHANNELS 3 Yrotation Xrotation Zrotation
        JOINT RightWrist
        {
         OFFSET 0.000000 -23.418114 0.012537
         CHANNELS 3 Yrotation Xrotation Zrotation
         End Site
         {
          OFFSET 0.000000 -17.723959 0.000000
         }
        }
       }
      }
     }
     JOINT LeftCollar
     {
      OFFSET 3.284495 7.824262 0.000000
      CHANNELS 3 Yrotation Xrotation Zrotation
      JOINT LeftShoulder
      {
       OFFSET 15.534540 0.000000 0.000000
       CHANNELS 3 Yrotation Xrotation Zrotation
       JOINT LeftElbow
       {
        OFFSET 0.000000 -28.251216 0.000000
        CHANNELS 3 Yrotation Xrotation Zrotation
        JOINT LeftWrist
        {
         OFFSET 0.000000 -23.418114 0.012537
         CHANNELS 3 Yrotation Xrotation Zrotation
         End Site
         {
          OFFSET 0.000000 -17.723959 0.000000
         }
        }
       }
      }
     }
    }
   }
  }
 }
 JOINT RightHip
 {
  OFFSET -8.142657 0.057990 0.005917
  CHANNELS 3 Yrotation Xrotation Zrotation
  JOINT RightKnee
  {
   OFFSET 0.000000 -49.716894 0.008478
   CHANNELS 3 Yrotation Xrotation Zrotation
   JOINT RightAnkle
   {
    OFFSET 0.000000 -43.994153 0.004166
    CHANNELS 3 Yrotation Xrotation Zrotation
    JOINT RightToe
    {
     OFFSET 0.000000 -7.619154 17.822051
     CHANNELS 3 Yrotation Xrotation Zrotation
     End Site
     {
      OFFSET 0.000000 -1.595627 7.159905
     }
    }
   }
  }
 }
 JOINT LeftHip
 {
  OFFSET 8.142657 0.057990 0.005917
  CHANNELS 3 Yrotation Xrotation Zrotation
  JOINT LeftKnee
  {
   OFFSET 0.000000 -49.716894 0.008478
   CHANNELS 3 Yrotation Xrotation Zrotation
   JOINT LeftAnkle
   {
    OFFSET 0.000000 -43.994153 0.004166
    CHANNELS 3 Yrotation Xrotation Zrotation
    JOINT LeftToe
    {
     OFFSET 0.000000 -7.619154 17.822051
     CHANNELS 3 Yrotation Xrotation Zrotation
     End Site
     {
      OFFSET 0.000000 -1.595627 7.159905
     }
    }
   }
  }
 }
}
MOTION
Frames: 6
Frame Time: 0.008333
245.362458 56.641961 264.065586 -53.942205 -55.732924 2.819212 -2.109988 21.291986 -1.665153 -0.800336 9.455459 -0.698987 -0.800336 9.455459 -0.698987 -0.587980 7.092532 -0.510561 1.802815 18.717475 1.043933 2.968504 -1.428261 1.330148 -1.308395 9.034659 12.786586 24.753043 -18.000756 -25.033163 -4.440692 -43.156758 34.932031 2.259571 -9.640959 -9.265762 -1.160987 10.768025 -9.913604 -8.063021 -19.045866 17.700836 23.437155 -46.028988 -32.299601 -3.141624 4.771313 -11.899323 -7.304475 -31.450096 -9.380790 -92.816321 73.802890 -108.344026 -3.363441 -4.802839 6.994760 0.064865 0.189837 0.076411 4.588160 -31.826491 11.927536 77.156146 85.346157 79.631352 -0.784755 0.971885 -1.159004 -0.063720 -0.151729 -0.024791
245.359015 56.644025 264.063470 -53.933099 -55.733661 2.808012 -2.116129 21.289566 -1.660023 -0.801164 9.454273 -0.698612 -0.801164 9.454273 -0.698612 -0.588607 7.091643 -0.510270 1.802556 18.729596 1.046632 2.967131 -1.405798 1.335373 -1.307187 9.032165 12.778822 24.737575 -17.985815 -25.021467 -4.446889 -43.170506 34.937178 2.253562 -9.629870 -9.254446 -1.158801 10.772814 -9.918112 -8.052241 -19.045521 17.698953 23.424951 -46.015935 -32.297644 -3.151944 4.756899 -11.903006 -7.310678 -31.448423 -9.376048 -92.797326 73.793072 -108.318833 -3.344482 -4.790355 6.964874 0.067985 0.191202 0.085491 4.582760 -31.827685 11.932915 77.144221 85.346133 79.623378 -0.785658 0.979052 -1.159995 -0.064880 -0.156984 -0.026088
245.357784 56.644598 264.063242 -53.933472 -55.727314 2.818039 -2.120094 21.283151 -1.667141 -0.799465 9.452401 -0.698187 -0.799465 9.452401 -0.698187 -0.587345 7.090236 -0.509981 1.799324 18.744221 1.048208 2.960665 -1.378681 1.339542 -1.310851 9.028862 12.777379 24.716770 -17.974068 -25.010426 -4.440330 -43.182773 34.931962 2.244500 -9.619539 -9.244556 -1.176102 10.781228 -9.920611 -8.039929 -19.047226 17.692702 23.406018 -46.016971 -32.309926 -3.137978 4.746814 -11.875601 -7.307307 -31.457982 -9.382960 -92.793204 73.780623 -108.320730 -3.321884 -4.782178 6.950010 0.061416 0.193619 0.087153 4.590478 -31.835494 11.920466 77.146029 85.343146 79.624803 -0.786795 0.988516 -1.155608 -0.070387 -0.163704 -0.028923
245.358479 56.644970 264.064651 -53.926428 -55.722579 2.817702 -2.125824 21.274147 -1.676079 -0.800522 9.449989 -0.698481 -0.800522 9.449989 -0.698481 -0.588135 7.088429 -0.510189 1.800115 18.759949 1.052852 2.960587 -1.349544 1.348049 -1.307595 9.032719 12.779126 24.704745 -17.967694 -24.999824 -4.436697 -43.188143 34.934995 2.237220 -9.607720 -9.249345 -1.166448 10.790677 -9.917316 -8.036110 -19.048651 17.688583 23.386841 -46.003202 -32.298983 -3.136192 4.733447 -11.879527 -7.309271 -31.467282 -9.388466 -92.786345 73.770063 -108.319120 -3.298601 -4.769445 6.938886 0.055857 0.193169 0.084479 4.592811 -31.841883 11.912669 77.128921 85.347974 79.605691 -0.780377 0.993956 -1.150965 -0.073265 -0.166810 -0.029419
245.360380 56.644782 264.066304 -53.924618 -55.715600 2.819542 -2.122392 21.266279 -1.675769 -0.798531 9.448250 -0.697051 -0.798531 9.448250 -0.697051 -0.586670 7.087120 -0.509152 1.796888 18.774784 1.053458 2.954449 -1.322022 1.350437 -1.316850 9.037076 12.776670 24.702482 -17.961223 -24.991573 -4.433971 -43.196733 34.921400 2.229268 -9.601042 -9.233954 -1.177383 10.795361 -9.913996 -8.026730 -19.043333 17.679281 23.362467 -46.002309 -32.314515 -3.113279 4.725358 -11.843076 -7.309478 -31.478855 -9.390183 -92.791826 73.770801 -108.326602 -3.294617 -4.759768 6.921811 0.056834 0.195836 0.085323 4.596444 -31.850327 11.903886 77.124723 85.350365 79.600598 -0.774211 0.998190 -1.142067 -0.078124 -0.169376 -0.034830
245.362740 56.645612 264.067996 -53.919801 -55.715518 2.817471 -2.123539 21.261775 -1.679252 -0.797622 9.446726 -0.697855 -0.797622 9.446726 -0.697855 -0.585979 7.085977 -0.509770 1.795439 18.787797 1.055920 2.950974 -1.297904 1.355624 -1.321454 9.046532 12.778307 24.696195 -17.958381 -24.979157 -4.421240 -43.203942 34.910825 2.221194 -9.597631 -9.228248 -1.173334 10.802755 -9.902030 -8.021544 -19.042418 17.669607 23.352027 -45.986072 -32.308937 -3.118753 4.710415 -11.845948 -7.312428 -31.476671 -9.389708 -92.783554 73.774010 -108.320932 -3.295950 -4.762802 6.907707 0.058905 0.207626 0.086086 4.596471 -31.850936 11.900193 77.121667 85.348800 79.592753 -0.773940 1.000073 -1.134529 -0.082532 -0.170469 -0.035879
